<?xml version='1.0' encoding='UTF-8'?>
<svg xmlns="http://www.w3.org/2000/svg" id="Layer_1" data-name="Layer 1" viewBox="0 0 311.99 161.28">
  <rect id="circuit_path" width="311.99" height="161.28" fill="none" stroke-width="0" />
  <path d="m247.38,36.25l5.36,57.37c0,2.96-.22,9.49-1.11,11.93-1.11,3.05-6.39,8.88-8.33,9.99-1.94,1.11-35.25-2.78-36.92-3.89-1.66-1.11-2.22-7.21-3.6-9.16-1.39-1.94-16.1-2.5-18.04-1.39-1.94,1.11-3.89,9.16-6.94,9.71-3.05.56-22.76-3.05-24.71-5.27-1.18-1.35-1.26-5.06-1.06-7.93.09-1.33-.77-2.57-2.07-2.86-3.74-.84-9.16-2.1-11.86-2.82-3.83-1.02-20.1-15.89-23.77-18.27-.41-.27-.87-.2-1.25.12-7.64,6.62-16.37,46.01-17.73,49.8-1.39,3.89-3.61,16.93-5.55,13.04-1.94-3.89-10.55-9.44-14.43-13.04-3.89-3.61-1.94-11.94-1.94-14.72,0-1.94-3.4-2.61-5.73-2.75-.6-.04-1.18-.24-1.64-.62l-5.9-4.91c-.98-.82-1.21-2.23-.53-3.32,7.73-12.28,21.55-34.3,23.24-37.25,2.22-3.89,8.61-10.27,12.49-9.71,2.69.38,9.13,8.31,13.63,13.97,1,1.25,2.88,1.29,3.93.08l14.57-16.81c.83-.96,2.24-1.17,3.31-.48,11.54,7.47,32.25,20.91,35.61,23.22,3.43,2.35,29.92,4.04,31.81,4.16.08,0,.14.01.21.02,1.97.3,30.35,4.53,32.92,1.09,3.33-4.44-1.67-21.92-4.72-31.09-3.05-9.16.83-18.87,2.22-20.54,1.39-1.67,6.66,5.83,9.71,7.21,1.7.77,4.45,1.93,6.62,2.59,1.15.35,2.07,1.31,2.17,2.5Z" fill="none" stroke="#ffffff" stroke-width="8" />
<path d="m247.38,36.25l5.36,57.37c0,2.96-.22,9.49-1.11,11.93-1.11,3.05-6.39,8.88-8.33,9.99-1.94,1.11-35.25-2.78-36.92-3.89-1.66-1.11-2.22-7.21-3.6-9.16-1.39-1.94-16.1-2.5-18.04-1.39-1.94,1.11-3.89,9.16-6.94,9.71-3.05.56-22.76-3.05-24.71-5.27-1.18-1.35-1.26-5.06-1.06-7.93.09-1.33-.77-2.57-2.07-2.86-3.74-.84-9.16-2.1-11.86-2.82-3.83-1.02-20.1-15.89-23.77-18.27-.41-.27-.87-.2-1.25.12-7.64,6.62-16.37,46.01-17.73,49.8-1.39,3.89-3.61,16.93-5.55,13.04-1.94-3.89-10.55-9.44-14.43-13.04-3.89-3.61-1.94-11.94-1.94-14.72,0-1.94-3.4-2.61-5.73-2.75-.6-.04-1.18-.24-1.64-.62l-5.9-4.91c-.98-.82-1.21-2.23-.53-3.32,7.73-12.28,21.55-34.3,23.24-37.25,2.22-3.89,8.61-10.27,12.49-9.71,2.69.38,9.13,8.31,13.63,13.97,1,1.25,2.88,1.29,3.93.08l14.57-16.81c.83-.96,2.24-1.17,3.31-.48,11.54,7.47,32.25,20.91,35.61,23.22,3.43,2.35,29.92,4.04,31.81,4.16.08,0,.14.01.21.02,1.97.3,30.35,4.53,32.92,1.09,3.33-4.44-1.67-21.92-4.72-31.09-3.05-9.16.83-18.87,2.22-20.54,1.39-1.67,6.66,5.83,9.71,7.21,1.7.77,4.45,1.93,6.62,2.59,1.15.35,2.07,1.31,2.17,2.5Z" fill="none" stroke="#000" stroke-width="2" />
</svg>